<svg width="32" height="32" viewBox="0 0 32 32" fill="none" xmlns="http://www.w3.org/2000/svg">
  <!-- Background circle with gradient -->
  <circle cx="16" cy="16" r="16" fill="url(#gradient)" />
  
  <!-- Stylized "G" letter -->
  <path d="M20 12.5C20 14.985 17.985 17 15.5 17H13V14.5H15.5C16.605 14.5 17.5 13.605 17.5 12.5C17.5 11.395 16.605 10.5 15.5 10.5H13V8H15.5C17.985 8 20 10.015 20 12.5ZM19 19.5H13V17H19V19.5ZM15.5 24C11.91 24 9 21.09 9 17.5V8H11.5V17.5C11.5 19.71 13.29 21.5 15.5 21.5C17.71 21.5 19.5 19.71 19.5 17.5H22C22 21.09 19.09 24 15.5 24Z" fill="white"/>
  
  <!-- Gradient definition -->
  <defs>
    <linearGradient id="gradient" x1="0" y1="0" x2="32" y2="32" gradientUnits="userSpaceOnUse">
      <stop offset="0%" style="stop-color:#0891b2" />
      <stop offset="100%" style="stop-color:#6366f1" />
    </linearGradient>
  </defs>
</svg>